<svg width="29" height="30" viewBox="0 0 29 30" fill="none" xmlns="http://www.w3.org/2000/svg">
<path fill-rule="evenodd" clip-rule="evenodd" d="M14.6797 0C18.464 0 21.5901 2.88343 21.9755 6.57123L22.0831 6.5725C24.1823 6.5725 26.7347 7.96668 27.5961 11.8771L28.7384 20.7185C29.1481 23.572 28.6356 25.8609 27.2125 27.5026C25.7966 29.1357 23.5555 30 20.7309 30H8.64508C5.54255 30 3.38106 29.2399 2.03609 27.6778C0.685343 26.1113 0.233645 23.7616 0.69403 20.6953L1.81748 11.9712C2.55584 7.97103 5.25589 6.5725 7.34645 6.5725C7.52692 4.90827 8.27734 3.32505 9.46784 2.13833C10.836 0.77889 12.7224 0 14.6493 0H14.6797ZM22.0831 8.74412H7.34645C6.70799 8.74412 4.574 9.00182 3.9616 12.3085L2.84394 20.995C2.48055 23.4316 2.76142 25.1949 3.68074 26.2619C4.58848 27.3159 6.21286 27.8284 8.64508 27.8284H20.7309C22.2481 27.8284 24.3199 27.5258 25.5707 26.0809C26.5639 24.9358 26.9056 23.2303 26.5871 21.0109L25.4593 12.2491C24.9786 10.0905 23.7104 8.74412 22.0831 8.74412ZM18.9021 12.7748C19.5015 12.7748 20.0212 13.2613 20.0212 13.8606C20.0212 14.46 19.5681 14.9464 18.9687 14.9464H18.9021C18.3027 14.9464 17.8163 14.46 17.8163 13.8606C17.8163 13.2613 18.3027 12.7748 18.9021 12.7748ZM10.4616 12.7748C11.0609 12.7748 11.5807 13.2613 11.5807 13.8606C11.5807 14.46 11.1261 14.9464 10.5267 14.9464H10.4616C9.8622 14.9464 9.37576 14.46 9.37576 13.8606C9.37576 13.2613 9.8622 12.7748 10.4616 12.7748ZM14.6754 2.17163H14.6537C13.2913 2.17163 11.9638 2.72032 11.001 3.67729C10.2168 4.45801 9.70385 5.48436 9.53792 6.57182L19.787 6.57223C19.4149 4.08465 17.2638 2.17163 14.6754 2.17163Z" fill="#2F2F2F"/>
</svg>
