<svg width="25" height="30" viewBox="0 0 25 30" fill="none" xmlns="http://www.w3.org/2000/svg">
<path fill-rule="evenodd" clip-rule="evenodd" d="M16.8382 0C21.7194 0 24.5198 2.41618 24.5198 6.62541V27.5435C24.5198 28.4214 24.068 29.2114 23.3081 29.6532C22.5512 30.0964 21.6388 30.1051 20.8733 29.6733L12.2965 24.828L3.64057 29.6834C3.26641 29.8935 2.85628 30 2.44471 30C2.02019 30 1.59567 29.8863 1.21 29.6589C0.451619 29.2172 -0.000244141 28.4271 -0.000244141 27.5507V6.36207C-0.000244141 2.31832 2.8016 0 7.68719 0H16.8382ZM16.8382 2.15858H7.68719C4.01904 2.15858 2.15834 3.57174 2.15834 6.36207V27.5507C2.15834 27.686 2.23605 27.7594 2.30081 27.7968C2.36556 27.8371 2.46774 27.8659 2.58574 27.7997L11.7698 22.6479C12.0979 22.4651 12.4994 22.4637 12.8289 22.6493L21.9339 27.7925C22.0533 27.8616 22.1555 27.8299 22.2202 27.791C22.285 27.7522 22.3612 27.6788 22.3612 27.5435L22.3607 6.46143C22.3498 5.22287 22.1102 2.15858 16.8382 2.15858ZM17.4696 9.68269C18.0654 9.68269 18.5489 10.1662 18.5489 10.762C18.5489 11.3577 18.0654 11.8413 17.4696 11.8413H6.9386C6.34283 11.8413 5.8593 11.3577 5.8593 10.762C5.8593 10.1662 6.34283 9.68269 6.9386 9.68269H17.4696Z" fill="#2F2F2F"/>
</svg>
