<svg width="54" height="48" viewBox="0 0 54 48" fill="none" xmlns="http://www.w3.org/2000/svg">
<path d="M21.694 9.45466C23.0444 8.88835 23.6107 7.27655 23.0008 5.96968L20.8663 1.48278C20.2564 0.219911 18.7753 -0.346833 17.4684 0.219911C13.7657 1.78815 10.5856 3.83557 8.05901 6.31862C4.96609 9.23685 2.8751 12.5911 1.74249 16.2939C0.609871 20.0407 0 25.137 0 31.6278V45.0014C0 46.439 1.17618 47.6151 2.61373 47.6151H19.7337C21.1712 47.6151 22.3474 46.439 22.3474 45.0014V27.8815C22.3474 26.4435 21.1712 25.2677 19.7337 25.2677H11.544C11.6311 20.8675 12.6766 17.3394 14.5933 14.6817C16.1616 12.548 18.5139 10.8055 21.694 9.45466Z" fill="#2F2F2F"/>
<path d="M52.4492 9.4546C53.7997 8.88829 54.3655 7.27649 53.7561 5.96963L51.6216 1.52672C51.0117 0.263418 49.5306 -0.302891 48.2237 0.263418C44.5645 1.83166 41.4276 3.87908 38.8578 6.31856C35.7645 9.28079 33.6304 12.6351 32.4973 16.3379C31.3647 19.9967 30.7988 25.0939 30.7988 31.6282V45.0018C30.7988 46.4393 31.975 47.6155 33.4126 47.6155H50.5325C51.9701 47.6155 53.1462 46.4393 53.1462 45.0018V27.8818C53.1462 26.4439 51.9701 25.2681 50.5325 25.2681H42.2992C42.3864 20.8679 43.4323 17.3398 45.3486 14.6821C46.9168 12.548 49.2692 10.8055 52.4492 9.4546Z" fill="#2F2F2F"/>
</svg>
